<mxfile host="65bd71144e">
    <diagram id="vYP4GJupKLAuCEI4TI9X" name="PÃ¡gina-1">
        <mxGraphModel dx="906" dy="561" grid="1" gridSize="10" guides="1" tooltips="1" connect="1" arrows="1" fold="1" page="1" pageScale="1" pageWidth="827" pageHeight="1169" math="0" shadow="0">
            <root>
                <mxCell id="0"/>
                <mxCell id="1" parent="0"/>
                <mxCell id="2" value="" style="rounded=0;whiteSpace=wrap;html=1;" vertex="1" parent="1">
                    <mxGeometry x="70" y="50" width="200" height="130" as="geometry"/>
                </mxCell>
                <mxCell id="3" value="" style="rounded=0;whiteSpace=wrap;html=1;" vertex="1" parent="1">
                    <mxGeometry x="110" y="430" width="250" height="260" as="geometry"/>
                </mxCell>
                <mxCell id="6" value="&lt;h1&gt;FRONTEND&lt;/h1&gt;&lt;p&gt;Notion template&lt;/p&gt;&lt;p&gt;&lt;br&gt;&lt;/p&gt;&lt;p&gt;&lt;br&gt;&lt;/p&gt;" style="text;html=1;strokeColor=none;fillColor=none;spacing=5;spacingTop=-20;whiteSpace=wrap;overflow=hidden;rounded=0;" vertex="1" parent="1">
                    <mxGeometry x="70" y="55" width="190" height="120" as="geometry"/>
                </mxCell>
                <mxCell id="8" value="&lt;h1&gt;&lt;span style=&quot;background-color: initial;&quot;&gt;TODO&lt;/span&gt;&lt;/h1&gt;&lt;h1&gt;&lt;ul&gt;&lt;li&gt;&lt;span style=&quot;font-size: 12px; font-weight: 400; background-color: initial;&quot;&gt;Implement and use template tags&lt;/span&gt;&lt;/li&gt;&lt;li&gt;&lt;span style=&quot;font-size: 12px; font-weight: 400; background-color: initial;&quot;&gt;Try fix responsivity&amp;nbsp;&lt;/span&gt;&lt;br&gt;&lt;/li&gt;&lt;/ul&gt;&lt;/h1&gt;" style="text;html=1;strokeColor=none;fillColor=none;spacing=5;spacingTop=-20;whiteSpace=wrap;overflow=hidden;rounded=0;" vertex="1" parent="1">
                    <mxGeometry x="290" y="50" width="260" height="130" as="geometry"/>
                </mxCell>
                <mxCell id="9" value="&lt;h1&gt;&lt;span style=&quot;background-color: initial;&quot;&gt;BACKEND&lt;/span&gt;&lt;/h1&gt;&lt;h1&gt;&lt;span style=&quot;background-color: initial; font-size: 12px; font-weight: normal;&quot;&gt;DJANGO&lt;/span&gt;&lt;br&gt;&lt;/h1&gt;" style="text;html=1;strokeColor=none;fillColor=none;spacing=5;spacingTop=-20;whiteSpace=wrap;overflow=hidden;rounded=0;" vertex="1" parent="1">
                    <mxGeometry x="110" y="430" width="190" height="120" as="geometry"/>
                </mxCell>
                <mxCell id="10" value="&lt;h1&gt;&lt;span style=&quot;background-color: initial;&quot;&gt;TODO&lt;/span&gt;&lt;/h1&gt;&lt;div&gt;&lt;ul&gt;&lt;li&gt;Page to edit data&lt;/li&gt;&lt;li&gt;Show old jobs in a gantt chart&lt;/li&gt;&lt;/ul&gt;&lt;/div&gt;" style="text;html=1;strokeColor=none;fillColor=none;spacing=5;spacingTop=-20;whiteSpace=wrap;overflow=hidden;rounded=0;" vertex="1" parent="1">
                    <mxGeometry x="110" y="540" width="190" height="120" as="geometry"/>
                </mxCell>
                <mxCell id="12" value="" style="rounded=0;whiteSpace=wrap;html=1;" vertex="1" parent="1">
                    <mxGeometry x="10" y="750" width="810" height="330" as="geometry"/>
                </mxCell>
                <mxCell id="13" value="&lt;h1&gt;DATABASE&lt;/h1&gt;&lt;p&gt;PostgreSQL&lt;/p&gt;" style="text;html=1;strokeColor=none;fillColor=none;spacing=5;spacingTop=-20;whiteSpace=wrap;overflow=hidden;rounded=0;" vertex="1" parent="1">
                    <mxGeometry x="10" y="750" width="190" height="120" as="geometry"/>
                </mxCell>
                <mxCell id="27" value="&lt;ul style=&quot;line-height: 90%;&quot;&gt;&lt;li&gt;Name&lt;/li&gt;&lt;li&gt;Resume Text&lt;/li&gt;&lt;li&gt;Birthdate&lt;/li&gt;&lt;li&gt;Nationality&lt;/li&gt;&lt;li&gt;Jobs&lt;/li&gt;&lt;li&gt;Skills&lt;/li&gt;&lt;li&gt;Projects&lt;/li&gt;&lt;li&gt;Education&lt;/li&gt;&lt;li&gt;Social Links&lt;/li&gt;&lt;li&gt;Languages&lt;/li&gt;&lt;li&gt;Contact infos&lt;/li&gt;&lt;li&gt;Certifications&lt;/li&gt;&lt;li&gt;Awards&lt;/li&gt;&lt;/ul&gt;" style="text;html=1;strokeColor=none;fillColor=none;align=left;verticalAlign=middle;whiteSpace=wrap;rounded=0;" vertex="1" parent="1">
                    <mxGeometry x="30" y="830" width="180" height="220" as="geometry"/>
                </mxCell>
            </root>
        </mxGraphModel>
    </diagram>
</mxfile>